<svg width="311" height="38" viewBox="0 0 311 38" fill="none" xmlns="http://www.w3.org/2000/svg">
<path d="M52.4544 0C47.5162 0 42.8524 1.92351 39.3408 5.44078L35.5 9.28779L31.6592 5.44078C28.1476 1.92351 23.4838 0 18.5456 0C13.6074 0 8.94359 1.92351 5.43199 5.44078C1.9204 8.95805 0 13.6294 0 18.5756C0 23.5217 1.9204 28.1931 5.43199 31.7104C8.94359 35.2277 13.6074 37.1512 18.5456 37.1512C23.4838 37.1512 28.1476 35.2277 31.6592 31.7104L35.5 27.8634L39.3408 31.7104C42.8524 35.2277 47.5162 37.1512 52.4544 37.1512C57.3926 37.1512 62.0564 35.2277 65.568 31.7104C72.8107 24.456 72.8107 12.6951 65.568 5.44078C62.0564 1.92351 57.3926 0 52.4544 0ZM29.8485 29.8968C26.8308 32.9194 22.8253 34.6231 18.5456 34.6231C14.2658 34.6231 10.2604 32.9744 7.24266 29.9518C4.22488 26.9291 2.57883 22.9172 2.57883 18.6305C2.57883 14.3439 4.22488 10.332 7.24266 7.30933C10.2604 4.17676 14.2658 2.52804 18.5456 2.52804C22.8253 2.52804 26.8308 4.17676 29.8485 7.19941L33.6893 11.0464L35.5 12.86L37.4753 14.8385L39.2859 16.6521L41.2612 18.6305L43.0719 20.4441L46.9127 24.2911C48.3941 25.775 50.4243 26.6543 52.5641 26.6543C54.704 26.6543 56.6793 25.83 58.2156 24.2911C59.6971 22.8073 60.5201 20.7739 60.5201 18.6305C60.5201 16.4872 59.6971 14.5087 58.2156 12.9699C56.7342 11.4861 54.704 10.6068 52.5641 10.6068C50.4243 10.6068 48.449 11.4311 46.9127 12.9699L43.0719 16.8169L41.0417 14.8385L44.8825 10.9915C46.9127 8.95805 49.6012 7.8589 52.4544 7.8589C55.3076 7.8589 57.9961 8.95805 60.0263 10.9915C64.1963 15.1682 64.1963 21.9829 60.0263 26.2147C57.9961 28.2481 55.3076 29.3472 52.4544 29.3472C49.6012 29.3472 46.9127 28.2481 44.8825 26.2147L41.0417 22.3676L39.2311 20.554L37.3107 18.5756L35.5 16.762L33.5247 14.8385L31.7141 13.0249L27.8733 9.17788C25.3493 6.64984 22.0572 5.27591 18.4907 5.27591C14.9243 5.27591 11.6321 6.64984 9.10819 9.17788C3.95054 14.3439 3.95054 22.7523 9.10819 27.9733C11.6321 30.5013 14.9243 31.8753 18.4907 31.8753C22.0572 31.8753 25.3493 30.5013 27.8733 27.9733L31.7141 24.1263L33.6893 26.1047L29.8485 29.8968ZM44.7728 18.5756L48.6136 14.7286C49.6561 13.6844 51.0278 13.1348 52.4544 13.1348C53.881 13.1348 55.2527 13.6844 56.2952 14.7286C57.3377 15.7728 57.8864 17.1467 57.8864 18.5756C57.8864 20.0594 57.3377 21.3784 56.2952 22.4226C55.2527 23.4668 53.881 24.0164 52.4544 24.0164C50.973 24.0164 49.6561 23.4668 48.6136 22.4226L44.7728 18.5756ZM63.7573 29.8968C60.7396 32.9194 56.7342 34.5682 52.4544 34.5682C48.1747 34.5682 44.1692 32.9194 41.1515 29.8968L37.3107 26.0498L35.5 24.2362L33.5247 22.2577L31.7141 20.4441L29.7388 18.4657L27.9281 16.6521L24.0873 12.8051C22.6059 11.3212 20.5757 10.4419 18.4359 10.4419C16.296 10.4419 14.3207 11.2663 12.7844 12.8051C11.3029 14.2889 10.4799 16.3223 10.4799 18.4657C10.4799 20.609 11.3029 22.5875 12.7844 24.1263C14.2658 25.6101 16.296 26.4894 18.4359 26.4894C20.5757 26.4894 22.551 25.6651 24.0873 24.1263L27.9281 20.2793L29.9034 22.2577L26.0626 26.1047C24.0325 28.1382 21.3439 29.2373 18.4907 29.2373C15.6376 29.2373 12.949 28.1382 10.9189 26.1047C6.74884 21.928 6.74884 15.1133 10.9189 10.9365C12.949 8.90309 15.6376 7.80394 18.4907 7.80394C21.3439 7.80394 24.0325 8.90309 26.0626 10.9365L29.9034 14.7835L31.7141 16.5971L33.6893 18.5756L35.5 20.3892L37.4753 22.3676L39.2859 24.1812L43.1267 28.0282C45.6507 30.5563 48.9428 31.9302 52.5093 31.9302C56.0757 31.9302 59.3679 30.5563 61.8918 28.0282C67.0495 22.8623 67.0495 14.4538 61.8918 9.23283C59.3679 6.7048 56.0757 5.33086 52.5093 5.33086C48.9428 5.33086 45.6507 6.7048 43.1267 9.23283L39.2859 13.0798L37.3107 11.1014L41.1515 7.25437C44.1692 4.23172 48.1747 2.58299 52.4544 2.58299C56.7342 2.58299 60.7396 4.23172 63.7573 7.25437C70.0124 13.4645 70.0124 23.6317 63.7573 29.8968ZM26.2272 18.5756L22.3864 22.4226C21.3439 23.4668 19.9722 24.0164 18.5456 24.0164C17.0641 24.0164 15.7473 23.4668 14.7048 22.4226C13.6623 21.3784 13.1136 20.0045 13.1136 18.5756C13.1136 17.0917 13.6623 15.7728 14.7048 14.7286C15.7473 13.6844 17.119 13.1348 18.5456 13.1348C19.9722 13.1348 21.3439 13.6844 22.3864 14.7286L26.2272 18.5756Z" fill="white"/>
<path d="M113.736 12.5517C112.916 11.2031 111.767 10.1916 110.209 9.43294C108.651 8.75861 106.846 8.33716 104.796 8.33716H96.1011L95.2809 12.3831H104.221C106.108 12.3831 107.584 12.8046 108.569 13.7318C109.553 14.659 110.045 15.8391 110.045 17.4406C110.045 18.9578 109.717 20.3908 109.143 21.5709C108.487 22.751 107.584 23.7624 106.436 24.4368C105.206 25.1111 103.811 25.4483 102.253 25.4483H97.5775L99.218 16.8506H94.4607L92 29.4942H102.089C104.631 29.4942 106.846 28.9885 108.815 27.977C110.783 26.9655 112.26 25.5326 113.326 23.6782C114.392 21.8237 114.966 19.6322 114.966 17.1877C114.966 15.4176 114.556 13.8161 113.736 12.5517Z" fill="white"/>
<path d="M133.831 20.0536C134.897 18.6207 135.389 16.9349 135.389 14.9962C135.389 12.8889 134.651 11.2874 133.257 10.1073C131.862 8.92721 129.894 8.42146 127.269 8.42146H118.903L118.083 12.4674H126.695C127.925 12.4674 128.91 12.7203 129.566 13.2261C130.222 13.6475 130.55 14.4061 130.55 15.4176C130.55 16.8506 130.14 17.8621 129.238 18.6207C128.335 19.3793 127.105 19.7165 125.547 19.7165H121.446L122.02 16.9349H117.262L114.802 29.5786H119.641L120.789 23.5939H124.891L128.171 29.5786H133.257L129.648 23.0038C131.37 22.4981 132.765 21.4866 133.831 20.0536Z" fill="white"/>
<path d="M232.095 20.1379C233.161 18.705 233.653 17.0192 233.653 15.0805C233.653 12.9732 232.915 11.3717 231.52 10.1916C230.126 9.0115 228.158 8.50575 225.533 8.50575H217.085L216.264 12.5517H224.877C226.107 12.5517 227.091 12.8046 227.747 13.3104C228.404 13.8161 228.732 14.5747 228.732 15.5862C228.732 17.0192 228.322 18.0307 227.419 18.7893C226.517 19.5479 225.287 19.8851 223.728 19.8851H219.627L220.201 17.1035H215.444L212.983 29.7471H217.823L218.971 23.7625H223.072L226.353 29.7471H231.438L227.829 23.1724C229.552 22.4981 231.028 21.4866 232.095 20.1379Z" fill="white"/>
<path d="M154.583 12.2988L155.403 8.33716H139.819L135.718 29.5785H151.712L152.532 25.6169H141.131L142.116 20.728H151.712L152.45 16.9349H142.854L143.756 12.2988H154.583Z" fill="white"/>
<path d="M198.875 8.33716L188.787 21.5709L183.619 8.33716H179.764L175.663 29.5785H180.174L182.635 16.8506L186.9 27.387H189.033L196.907 17.0192L194.446 29.6628H198.957L203.059 8.42145H198.875V8.33716Z" fill="white"/>
<path d="M238 8.33716L233.898 29.5785H238.738L242.839 8.33716H238Z" fill="white"/>
<path d="M284.425 12.2988L285.245 8.33716H269.661L265.56 29.5785H281.472L282.292 25.6169H270.973L271.957 20.728H281.554L282.292 16.9349H272.696L273.598 12.2988H284.425Z" fill="white"/>
<path d="M298.122 18.2835C297.302 17.9464 296.236 17.5249 294.842 17.1877C293.939 16.9349 293.201 16.682 292.709 16.5134C292.217 16.3448 291.807 16.092 291.479 15.7548C291.151 15.4176 290.987 15.0805 290.987 14.5747C290.987 13.8161 291.397 13.1418 292.135 12.7203C292.955 12.2146 294.021 11.9617 295.334 11.9617C296.4 11.9617 297.384 12.1303 298.369 12.3831C299.353 12.636 300.173 13.0575 300.993 13.6475L302.798 9.85441C301.895 9.26437 300.829 8.84291 299.599 8.50575C298.369 8.16858 297.056 8 295.662 8C293.775 8 292.135 8.25287 290.658 8.84291C289.264 9.43295 288.116 10.2759 287.378 11.3716C286.639 12.4674 286.229 13.7318 286.229 15.1648C286.229 16.4291 286.557 17.3563 287.131 18.1149C287.788 18.8736 288.526 19.4636 289.346 19.8008C290.166 20.1379 291.315 20.5594 292.627 20.9808C293.939 21.4023 294.924 21.7395 295.58 22.0766C296.154 22.4138 296.482 22.9195 296.482 23.5096C296.482 24.2682 296.072 24.8582 295.334 25.364C294.595 25.7854 293.529 26.0383 292.217 26.0383C290.987 26.0383 289.756 25.8697 288.608 25.4483C287.46 25.1111 286.393 24.5211 285.409 23.8467L283.44 27.6398C284.343 28.3142 285.573 28.9042 287.049 29.3257C288.526 29.7471 290.084 30 291.725 30C293.611 30 295.334 29.6628 296.728 29.0728C298.204 28.4828 299.271 27.6398 300.091 26.5441C300.911 25.4483 301.239 24.1839 301.239 22.751C301.239 21.5709 300.911 20.6437 300.337 19.8851C299.681 19.2107 299.025 18.6207 298.122 18.2835Z" fill="white"/>
<path d="M264.494 12.5517C263.674 11.2031 262.525 10.1916 260.967 9.43294C259.408 8.75861 257.604 8.33716 255.553 8.33716H246.859L246.039 12.3831H254.979C256.866 12.3831 258.342 12.8046 259.326 13.7318C260.311 14.659 260.803 15.8391 260.803 17.4406C260.803 18.9578 260.475 20.3908 259.9 21.5709C259.244 22.751 258.342 23.7624 257.194 24.4368C255.963 25.1111 254.569 25.4483 253.011 25.4483H248.335L249.976 16.8506H245.136L242.676 29.4942H252.765C255.307 29.4942 257.522 28.9885 259.49 27.977C261.459 26.9655 262.935 25.5326 264.002 23.6782C265.068 21.8237 265.642 19.6322 265.642 17.1877C265.724 15.5019 265.314 13.9004 264.494 12.5517Z" fill="white"/>
<path d="M169.347 25.0268H159.668L156.961 29.5785H151.876L165.246 8.33716H170.003L175.088 29.5785H170.331L169.347 25.0268ZM168.527 21.318L166.804 13.1418L161.965 21.318H168.527Z" fill="white"/>
</svg>
