<svg width="152" height="94" viewBox="0 0 545 336" fill="none" xmlns="http://www.w3.org/2000/svg">
<path d="M79 162.802H355L378 94.802L401 162.802H472L414 205.302L436.5 273.802L378 231.302L275 335.802L378 260.802L481 335.302L441.5 213.802L545 138.802H417.5L378 17.302L338.5 138.802H9L79 162.802Z" fill="white"/>
<path d="M139 177.802H284L324 201.802H219L139 177.802Z" fill="white"/>
<path d="M0.277344 221.961H8.1582C9.34961 221.961 10.5801 222 11.8496 222.078C13.1387 222.137 14.3887 222.342 15.5996 222.693C16.8301 223.045 17.9824 223.592 19.0566 224.334C20.1504 225.057 21.1074 226.082 21.9277 227.41C22.748 228.719 23.3926 230.379 23.8613 232.391C24.3496 234.383 24.5938 236.824 24.5938 239.715V254.246C24.5938 257.137 24.3496 259.588 23.8613 261.6C23.3926 263.611 22.748 265.271 21.9277 266.58C21.1074 267.889 20.1504 268.914 19.0566 269.656C17.9824 270.379 16.8301 270.916 15.5996 271.268C14.3887 271.619 13.1387 271.834 11.8496 271.912C10.5801 271.971 9.34961 272 8.1582 272H0.277344V221.961ZM9.79883 266.697C11.166 266.697 12.2891 266.521 13.168 266.17C14.0664 265.818 14.7695 265.203 15.2773 264.324C15.8047 263.426 16.166 262.215 16.3613 260.691C16.5566 259.148 16.6543 257.205 16.6543 254.861V239.334C16.6543 236.99 16.5566 235.057 16.3613 233.533C16.166 231.99 15.8047 230.779 15.2773 229.9C14.7695 229.002 14.0664 228.377 13.168 228.025C12.2891 227.674 11.166 227.498 9.79883 227.498H7.86523V266.697H9.79883Z" fill="white"/>
<path d="M34.3906 221.961H42.623C43.5605 221.961 44.5859 222 45.6992 222.078C46.832 222.156 47.9551 222.352 49.0684 222.664C50.2012 222.957 51.2852 223.406 52.3203 224.012C53.375 224.617 54.3027 225.447 55.1035 226.502C55.9238 227.557 56.5781 228.885 57.0664 230.486C57.5547 232.068 57.7988 233.992 57.7988 236.258V237.518C57.7988 241.326 57.252 244.432 56.1582 246.834C55.0645 249.217 53.4531 250.936 51.3242 251.99L59.3516 272H51.3242L44.6738 253.279H41.832V272H34.3906V221.961ZM42.9746 247.801C44.3027 247.801 45.4258 247.654 46.3438 247.361C47.2617 247.068 48.0039 246.58 48.5703 245.896C49.1367 245.193 49.5469 244.275 49.8008 243.143C50.0547 241.99 50.1816 240.574 50.1816 238.895V234.939C50.1816 233.65 50.0645 232.537 49.8301 231.6C49.5957 230.662 49.1953 229.891 48.6289 229.285C48.082 228.68 47.3496 228.23 46.4316 227.938C45.5137 227.645 44.3613 227.498 42.9746 227.498H41.832V247.801H42.9746Z" fill="white"/>
<path d="M68.0938 221.961H86.6387V227.938H75.6816V242.908H84.1484V248.885H75.6816V266.023H86.9316V272H68.0938V221.961Z" fill="white"/>
<path d="M100.918 221.961H109.648L118.906 272H111.23L109.854 263.035H100.713L99.3945 272H91.6895L100.918 221.961ZM108.975 257.322L105.459 232.391H105.137L101.592 257.322H108.975Z" fill="white"/>
<path d="M126.77 221.961H136.672L141.477 241.326C141.984 243.475 142.385 245.525 142.678 247.479C142.971 249.412 143.254 251.238 143.527 252.957H143.762C144.035 251.238 144.318 249.412 144.611 247.479C144.904 245.525 145.305 243.475 145.812 241.326L150.764 221.961H160.461V272H153.371V255.447C153.371 252.908 153.391 250.467 153.43 248.123C153.488 245.779 153.557 243.631 153.635 241.678C153.713 239.705 153.801 237.967 153.898 236.463C153.996 234.959 154.084 233.768 154.162 232.889H153.605L146.047 265.555H141.242L133.625 232.889H133.068C133.146 233.768 133.234 234.959 133.332 236.463C133.43 237.967 133.518 239.705 133.596 241.678C133.674 243.631 133.732 245.779 133.771 248.123C133.83 250.467 133.859 252.908 133.859 255.447V272H126.77V221.961Z" fill="white"/>
<path d="M187.848 221.961H196.08C197.018 221.961 198.043 222 199.156 222.078C200.289 222.156 201.412 222.352 202.525 222.664C203.658 222.957 204.742 223.406 205.777 224.012C206.832 224.617 207.76 225.447 208.561 226.502C209.381 227.557 210.035 228.885 210.523 230.486C211.012 232.068 211.256 233.992 211.256 236.258V237.518C211.256 241.326 210.709 244.432 209.615 246.834C208.521 249.217 206.91 250.936 204.781 251.99L212.809 272H204.781L198.131 253.279H195.289V272H187.848V221.961ZM196.432 247.801C197.76 247.801 198.883 247.654 199.801 247.361C200.719 247.068 201.461 246.58 202.027 245.896C202.594 245.193 203.004 244.275 203.258 243.143C203.512 241.99 203.639 240.574 203.639 238.895V234.939C203.639 233.65 203.521 232.537 203.287 231.6C203.053 230.662 202.652 229.891 202.086 229.285C201.539 228.68 200.807 228.23 199.889 227.938C198.971 227.645 197.818 227.498 196.432 227.498H195.289V247.801H196.432Z" fill="white"/>
<path d="M221.551 221.961H229.139V272H221.551V221.961Z" fill="white"/>
<path d="M240.723 221.961H248.604C249.795 221.961 251.025 222 252.295 222.078C253.584 222.137 254.834 222.342 256.045 222.693C257.275 223.045 258.428 223.592 259.502 224.334C260.596 225.057 261.553 226.082 262.373 227.41C263.193 228.719 263.838 230.379 264.307 232.391C264.795 234.383 265.039 236.824 265.039 239.715V254.246C265.039 257.137 264.795 259.588 264.307 261.6C263.838 263.611 263.193 265.271 262.373 266.58C261.553 267.889 260.596 268.914 259.502 269.656C258.428 270.379 257.275 270.916 256.045 271.268C254.834 271.619 253.584 271.834 252.295 271.912C251.025 271.971 249.795 272 248.604 272H240.723V221.961ZM250.244 266.697C251.611 266.697 252.734 266.521 253.613 266.17C254.512 265.818 255.215 265.203 255.723 264.324C256.25 263.426 256.611 262.215 256.807 260.691C257.002 259.148 257.1 257.205 257.1 254.861V239.334C257.1 236.99 257.002 235.057 256.807 233.533C256.611 231.99 256.25 230.779 255.723 229.9C255.215 229.002 254.512 228.377 253.613 228.025C252.734 227.674 251.611 227.498 250.244 227.498H248.311V266.697H250.244Z" fill="white"/>
<path d="M274.836 221.961H293.381V227.938H282.424V242.908H290.891V248.885H282.424V266.023H293.674V272H274.836V221.961Z" fill="white"/>
<path d="M300.219 261.863C300.219 260.789 300.277 259.803 300.395 258.904C300.531 257.986 300.727 257 300.98 255.945H306.869V258.377C306.869 259.725 306.947 260.916 307.104 261.951C307.279 262.986 307.553 263.865 307.924 264.588C308.314 265.291 308.822 265.828 309.447 266.199C310.092 266.551 310.873 266.727 311.791 266.727C313.236 266.727 314.34 266.336 315.102 265.555C315.863 264.754 316.244 263.592 316.244 262.068C316.244 261.287 316.186 260.574 316.068 259.93C315.971 259.266 315.785 258.611 315.512 257.967C315.258 257.322 314.906 256.648 314.457 255.945C314.008 255.223 313.432 254.422 312.729 253.543L304.818 244.139C303.412 242.342 302.328 240.535 301.566 238.719C300.805 236.883 300.424 234.93 300.424 232.859C300.424 231.199 300.678 229.676 301.186 228.289C301.713 226.902 302.465 225.711 303.441 224.715C304.418 223.699 305.619 222.918 307.045 222.371C308.49 221.805 310.121 221.521 311.938 221.521C314.145 221.521 315.98 221.834 317.445 222.459C318.93 223.084 320.111 223.904 320.99 224.92C321.869 225.936 322.484 227.078 322.836 228.348C323.207 229.598 323.393 230.857 323.393 232.127C323.393 233.201 323.305 234.197 323.129 235.115C322.973 236.014 322.787 237.01 322.572 238.104H316.713V235.73C316.713 233.074 316.332 231.043 315.57 229.637C314.809 228.211 313.568 227.498 311.85 227.498C310.424 227.498 309.359 227.898 308.656 228.699C307.953 229.48 307.602 230.535 307.602 231.863C307.602 232.566 307.65 233.201 307.748 233.768C307.865 234.334 308.021 234.861 308.217 235.35C308.432 235.818 308.686 236.277 308.979 236.727C309.271 237.176 309.604 237.645 309.975 238.133L318.793 248.797C320.395 250.887 321.625 252.898 322.484 254.832C323.344 256.746 323.773 258.777 323.773 260.926C323.773 262.703 323.49 264.305 322.924 265.73C322.377 267.156 321.586 268.367 320.551 269.363C319.516 270.359 318.266 271.131 316.801 271.678C315.336 272.205 313.686 272.469 311.85 272.469C309.584 272.469 307.699 272.166 306.195 271.561C304.711 270.955 303.52 270.154 302.621 269.158C301.742 268.162 301.117 267.029 300.746 265.76C300.395 264.49 300.219 263.191 300.219 261.863Z" fill="white"/>
<path d="M136.83 109.765C135.73 110.365 135.03 111.865 134.73 114.265L134.03 121.265V121.365C133.83 125.765 134.63 129.165 136.53 131.665C137.33 133.265 138.23 134.165 139.43 134.565C140.03 136.665 140.83 138.265 141.83 139.265C136.63 139.565 134.03 139.965 134.03 140.265C134.03 140.865 140.63 141.365 153.73 141.765C166.83 142.165 182.73 142.365 201.23 142.365C219.83 142.365 235.63 142.165 248.73 141.765C261.83 141.365 268.43 140.865 268.43 140.265C268.43 139.865 265.53 139.465 259.63 139.165H259.93C262.43 138.565 264.33 136.665 265.63 133.365C266.63 132.465 267.43 131.465 268.03 130.365C269.13 122.065 269.03 115.465 267.93 110.565C267.03 106.565 264.33 104.065 259.83 103.165L253.83 101.865C248.73 100.465 242.33 99.5654 234.63 99.3654C234.03 98.9654 233.53 98.4654 232.93 98.0654C227.33 93.8654 222.23 91.1654 217.63 89.7654C214.03 88.4654 209.23 87.5654 203.13 87.1654C196.63 86.6654 189.53 86.6654 181.73 87.2654C172.93 87.8654 164.83 90.2654 157.43 94.5654C152.13 97.5654 146.33 101.865 140.13 107.365C138.83 108.665 137.73 109.465 136.83 109.765ZM141.63 108.465L148.33 107.165L142.63 107.465C147.83 102.765 153.83 98.5654 160.53 94.7654C166.53 91.3654 173.43 89.4654 181.13 89.0654C190.93 88.5654 199.23 88.6654 205.93 89.1654C198.33 89.0654 190.73 89.4654 183.23 90.3654C181.63 90.6654 181.33 91.5654 182.23 93.0654L186.83 99.5654C187.73 100.765 189.03 101.365 190.93 101.465L208.33 101.165C216.13 101.065 223.83 101.165 231.33 101.365C231.83 101.365 232.43 101.365 232.93 101.365C242.43 101.565 250.03 102.565 255.63 104.465L255.43 104.165C260.93 104.565 264.13 105.965 265.23 108.265C264.93 107.565 262.93 107.265 259.43 107.365C258.73 106.365 258.23 105.765 257.73 105.565C258.13 105.965 258.43 106.565 258.53 107.265C258.93 109.665 259.33 112.865 259.63 116.865C259.73 118.565 258.93 119.365 257.13 119.265L237.13 119.065C235.43 119.265 234.33 118.465 233.93 116.865C233.63 115.265 233.33 113.765 232.93 112.465C232.33 110.565 231.63 108.965 230.93 107.665C230.03 106.665 228.63 105.765 226.83 105.165L227.73 106.165C222.13 103.865 214.33 102.565 204.13 102.265C213.23 103.165 220.73 104.665 226.83 106.665H216.33C215.43 106.765 215.13 107.365 215.33 108.465L216.73 112.865H230.83L231.63 114.465L220.63 114.665C219.03 114.865 218.03 115.965 217.63 117.965L233.03 117.865C233.53 119.265 234.43 120.065 235.63 120.265H216.23C215.93 116.165 215.03 112.165 213.33 108.165C212.23 106.165 210.03 104.965 206.73 104.465C201.03 103.965 191.73 103.965 178.63 104.565C180.83 104.265 182.43 103.665 183.43 102.865L186.53 102.565L179.83 92.9654C178.63 91.5654 176.83 90.9654 174.53 91.2654C171.43 91.5654 168.43 92.4654 165.23 93.7654C162.03 95.1654 159.03 96.9654 156.13 99.1654C154.23 100.865 152.63 102.765 151.53 104.865C151.13 105.765 151.53 106.165 152.83 105.965C160.13 104.765 167.53 103.965 174.83 103.565C175.33 104.065 175.93 104.265 176.73 104.365V101.665L177.53 101.265L177.43 104.665C171.53 104.865 165.23 105.365 158.53 106.165C157.93 107.465 157.43 109.065 157.03 110.765C156.93 111.165 156.93 111.565 156.83 111.965C156.43 114.665 156.43 117.765 156.83 121.365C156.83 121.465 156.83 121.565 156.83 121.565C156.83 121.465 156.83 121.365 156.73 121.365C155.93 117.865 155.73 114.765 155.93 112.065C155.93 111.665 156.03 111.265 156.03 110.865C156.23 109.165 156.73 107.665 157.33 106.365C150.33 107.465 143.93 108.865 138.13 110.565L141.63 108.465ZM148.93 118.765C149.33 119.565 149.73 120.465 150.13 121.365C151.03 123.865 151.63 126.865 151.93 130.365C151.13 126.665 150.23 123.665 149.13 121.365C148.83 120.765 148.53 120.165 148.23 119.665C146.83 117.365 145.33 116.165 143.83 116.165C142.33 116.165 141.13 117.265 140.03 119.465C139.73 120.065 139.53 120.665 139.33 121.465C138.63 123.565 138.23 126.265 138.03 129.465C137.93 126.365 138.13 123.765 138.63 121.465C138.93 120.265 139.23 119.165 139.73 118.265C140.93 115.865 142.33 114.665 144.13 114.765C145.93 114.765 147.53 116.165 148.93 118.765ZM161.53 102.865L163.93 95.5654C158.93 97.7654 155.43 100.765 153.53 104.465C162.43 103.165 169.33 102.365 174.13 101.965L175.43 102.465C168.43 103.165 161.13 103.965 153.43 105.065C152.63 105.065 152.43 104.865 152.63 104.365C155.03 100.265 159.03 96.9654 164.73 94.5654C172.73 91.2654 177.63 91.0654 179.33 93.9654C176.93 91.3654 172.03 91.8654 164.83 95.2654L162.43 102.665L161.53 102.865ZM174.03 96.7654L177.53 96.4654C178.83 96.3654 179.43 97.0654 179.43 98.5654C179.13 97.4654 178.43 96.9654 177.33 97.0654L173.83 97.4654C172.33 97.7654 171.23 98.8654 170.63 100.565C170.53 98.5654 171.63 97.2654 174.03 96.7654ZM173.03 107.265C174.73 106.965 176.53 106.865 178.53 106.865L179.23 107.865V106.765H182.73C183.23 106.865 183.43 107.065 183.43 107.565C183.43 108.065 183.13 108.365 182.63 108.565L173.43 109.065C172.93 108.965 172.63 108.665 172.63 108.365C172.53 107.765 172.63 107.465 173.03 107.265ZM154.83 131.065L190.23 131.265L190.63 132.065L158.93 132.165C157.13 132.165 155.73 131.765 154.83 131.065ZM156.53 136.665H192.93C193.23 137.265 193.53 137.765 194.03 138.265C179.33 138.265 166.43 138.465 155.43 138.865C155.93 138.165 156.33 137.465 156.53 136.665ZM141.93 121.465C142.73 120.465 143.53 120.065 144.53 120.065C145.53 120.065 146.33 120.565 147.13 121.465C147.43 121.865 147.63 122.265 147.93 122.665C148.83 124.465 149.33 126.665 149.33 129.165C149.33 131.765 148.83 133.865 147.93 135.665C147.03 137.465 145.83 138.365 144.53 138.365C143.23 138.365 142.13 137.465 141.13 135.665C140.23 133.865 139.73 131.665 139.73 129.165C139.73 126.565 140.23 124.465 141.13 122.665C141.43 122.165 141.63 121.765 141.93 121.465ZM231.63 116.865H222.53C220.83 116.765 219.73 116.965 219.13 117.165C219.63 116.065 220.43 115.465 221.53 115.365H232.13C232.33 116.265 232.13 116.765 231.63 116.865ZM263.43 108.865C264.63 109.165 265.23 109.765 265.43 110.565L265.83 112.365C265.83 112.565 265.63 112.665 265.43 112.665C265.23 112.765 265.03 112.765 264.63 112.665L259.93 112.565L259.43 108.865C261.03 108.465 262.33 108.465 263.43 108.865ZM265.93 113.865C266.33 113.865 266.73 113.665 267.03 113.165C267.23 114.165 267.43 115.565 267.43 117.565C267.03 116.165 266.13 115.365 264.63 115.265L260.43 115.165L260.33 113.665L265.23 113.865C265.33 113.865 265.53 113.865 265.93 113.865ZM267.43 118.365C267.63 119.565 267.43 120.665 267.03 121.765C267.13 120.965 267.13 120.465 266.93 120.165C266.83 120.065 266.83 120.065 266.73 119.965L258.93 119.665C259.93 119.565 260.53 119.065 260.53 118.065L267.43 118.265C267.43 118.265 267.43 118.265 267.43 118.365ZM266.53 117.465L260.73 117.165C260.43 116.965 260.33 116.565 260.43 115.965L264.73 116.165C265.63 116.365 266.23 116.765 266.53 117.465ZM258.33 125.365C258.73 124.165 259.43 123.465 260.33 123.265L266.03 123.365C266.73 123.365 267.03 123.865 266.93 124.865L266.73 126.965L266.43 126.265V125.165C266.43 124.565 266.13 124.365 265.73 124.365L260.73 124.265C260.23 124.365 259.83 124.465 259.43 124.565C259.03 124.765 258.63 124.965 258.33 125.365ZM266.33 127.165L257.93 127.065C257.63 126.665 257.83 126.365 258.73 126.365L265.63 126.465C265.93 126.465 266.23 126.765 266.33 127.165ZM264.63 131.165L262.23 132.365H215.23C213.13 132.465 212.03 131.665 212.03 130.065C212.43 130.865 213.23 131.265 214.63 131.465L261.33 131.765L264.63 131.165ZM236.33 126.865L219.03 126.965C219.03 126.265 219.43 125.865 220.23 125.865H236.23C237.03 126.265 237.03 126.565 236.33 126.865ZM234.63 123.865C234.43 123.365 234.03 123.165 233.43 123.165L221.23 123.465C220.33 123.465 219.73 123.665 219.53 124.165L216.93 128.165C216.53 128.965 217.03 129.365 218.43 129.365C218.53 129.365 218.63 129.365 218.73 129.365H218.83L256.53 129.465L217.63 130.065C215.73 129.965 215.13 129.365 215.93 128.065L219.13 123.265C219.43 122.665 220.23 122.465 221.53 122.465L233.93 122.265C234.73 122.165 235.23 122.565 235.43 123.465C235.63 124.265 236.73 124.665 238.53 124.765H236.13C235.43 124.565 234.93 124.365 234.63 123.865ZM241.03 120.165L255.63 120.365C256.63 120.365 257.13 120.665 257.23 121.365L257.13 124.065C257.13 124.965 256.53 125.465 255.53 125.365L241.83 125.265C240.63 125.365 240.03 125.065 239.93 124.365V121.265C239.93 120.565 240.23 120.265 241.03 120.165ZM245.43 138.665C236.03 138.365 225.33 138.265 213.33 138.165C213.93 137.465 214.53 136.565 215.03 135.465L242.43 134.765C243.03 136.665 244.03 137.965 245.43 138.665ZM193.43 117.465C193.03 118.665 192.63 119.965 192.33 121.365C191.93 123.565 191.63 125.965 191.43 128.665C191.23 125.965 191.23 123.565 191.43 121.365C191.63 119.265 192.03 117.365 192.63 115.665C193.73 112.665 195.23 110.665 197.23 109.965C199.13 109.265 201.13 109.665 203.03 111.365C205.03 113.165 206.63 115.865 207.83 119.665C206.03 116.265 204.13 113.865 202.23 112.565C200.43 111.265 198.73 111.065 197.13 111.965C195.73 112.865 194.43 114.665 193.43 117.465ZM201.23 116.165C203.33 116.165 205.03 117.265 206.53 119.365C206.93 119.965 207.33 120.665 207.63 121.365C208.33 123.065 208.73 124.965 208.73 127.165C208.73 130.165 208.03 132.765 206.53 134.965C205.13 137.065 203.43 138.065 201.43 138.165C201.33 138.165 201.23 138.165 201.13 138.165C201.03 138.165 201.03 138.165 200.93 138.165C198.93 138.065 197.23 137.065 195.83 134.965C194.33 132.765 193.63 130.265 193.63 127.165C193.63 125.065 194.03 123.065 194.73 121.365C195.03 120.665 195.43 119.965 195.83 119.365C197.43 117.265 199.13 116.165 201.23 116.165ZM180.23 110.165C180.93 112.965 181.33 116.565 181.23 120.965C180.93 116.765 180.33 113.165 179.33 110.165C179.23 109.865 179.13 109.565 179.03 109.265L180.03 109.165C180.03 109.565 180.13 109.865 180.23 110.165ZM227.73 99.2654L206.13 98.8654C205.43 96.5654 204.13 94.8653 202.23 93.6654C206.13 92.5654 211.03 92.4654 216.83 93.3654C217.23 93.3654 217.73 93.4654 218.53 93.7654C220.93 94.4654 224.03 96.3654 227.73 99.2654ZM229.43 109.065L230.43 111.865H217.73L216.83 109.165C216.73 108.365 217.03 107.865 217.53 107.665H226.73C227.93 107.765 228.83 108.265 229.43 109.065ZM211.73 110.865C211.73 111.365 211.53 111.565 211.13 111.665L207.83 111.565C206.93 110.965 206.93 110.365 207.83 109.865H211.43C211.63 110.065 211.73 110.365 211.73 110.865ZM202.13 128.865L194.93 128.165C195.03 130.465 195.73 132.365 196.83 134.065C197.03 134.465 197.33 134.765 197.63 135.065L202.13 129.565C202.33 129.165 202.33 128.965 202.13 128.865ZM196.13 121.465C195.53 122.565 195.23 123.765 195.03 124.965L201.63 125.665C202.23 125.565 202.53 125.265 202.43 124.865L199.53 117.765C198.53 118.165 197.53 119.065 196.73 120.265C196.63 120.665 196.33 121.065 196.13 121.465ZM204.63 130.465L199.83 136.565C200.43 136.765 200.93 136.865 201.53 136.865C202.93 136.865 204.23 136.265 205.33 135.165L204.63 130.465ZM204.63 125.565C204.23 125.565 203.93 125.765 203.63 126.165C203.33 126.565 203.23 126.965 203.23 127.465C203.23 127.965 203.33 128.465 203.63 128.865C203.93 129.265 204.23 129.465 204.63 129.465C205.03 129.465 205.33 129.265 205.63 128.865C205.93 128.465 206.03 128.065 206.03 127.465C206.03 126.965 205.93 126.465 205.63 126.165C205.43 125.765 205.03 125.565 204.63 125.565ZM207.73 123.665L206.43 126.965C206.53 127.465 206.53 128.065 206.43 128.565L206.93 132.765C207.73 131.165 208.13 129.265 208.13 127.165C208.13 125.865 208.03 124.765 207.73 123.665ZM206.23 120.265C204.93 118.365 203.33 117.465 201.53 117.465L204.63 123.865C204.93 124.265 205.13 124.265 205.33 123.865L206.73 121.065C206.53 120.865 206.43 120.565 206.23 120.265ZM144.73 137.365C145.63 137.365 146.43 136.865 147.13 135.865L146.63 131.965L143.63 137.065C143.93 137.265 144.33 137.365 144.73 137.365ZM147.83 130.365L148.13 133.865C148.63 132.465 148.93 130.965 148.93 129.165C148.93 128.065 148.83 127.065 148.63 126.165L147.83 128.965C147.93 129.465 147.93 129.965 147.83 130.365ZM145.03 130.665L140.43 130.065C140.53 131.965 140.93 133.565 141.63 134.965C141.83 135.265 141.93 135.565 142.13 135.765L144.93 131.165C145.23 130.865 145.23 130.665 145.03 130.665ZM146.03 128.365C145.83 128.665 145.73 129.065 145.73 129.465C145.73 129.865 145.83 130.265 146.03 130.565C146.23 130.865 146.43 131.065 146.73 131.065C146.93 131.065 147.23 130.865 147.33 130.565C147.53 130.265 147.63 129.865 147.63 129.465C147.63 129.065 147.53 128.665 147.33 128.365C147.13 128.065 146.93 127.865 146.73 127.865C146.43 127.865 146.23 127.965 146.03 128.365ZM144.73 121.065L146.73 126.465C146.93 126.765 147.03 126.765 147.13 126.465L148.03 124.165C147.93 123.965 147.83 123.665 147.73 123.465C147.23 122.465 146.63 121.865 146.03 121.465C145.63 121.165 145.13 121.065 144.73 121.065ZM141.73 123.465C141.13 124.565 140.73 125.865 140.63 127.365L144.83 127.965C145.23 127.865 145.43 127.665 145.33 127.265L143.53 121.365C143.53 121.365 143.43 121.365 143.43 121.465C142.73 121.765 142.23 122.465 141.73 123.465ZM236.03 116.765C236.23 117.765 236.93 118.265 238.03 118.365L257.23 118.665C258.23 118.665 258.73 118.165 258.63 117.065C258.53 114.465 258.23 111.765 257.73 109.065C251.43 108.465 243.93 108.265 235.03 108.465L236.03 116.765ZM257.53 106.765C255.23 105.665 251.73 104.965 247.03 104.865C242.23 104.665 238.13 105.165 234.73 106.165C234.53 106.565 234.53 106.965 234.83 107.565C234.83 107.065 234.93 106.665 235.13 106.465C244.63 105.165 251.93 105.265 257.03 106.865C257.43 107.165 257.73 107.665 257.93 108.265C257.73 107.365 257.63 106.865 257.53 106.765Z" fill="white"/>
<path d="M276.837 118.072L277.811 117.96C277.597 118.744 277.45 119.444 277.444 120.052L277.069 120.095C276.769 120.129 276.562 120.304 276.521 120.613L276.047 125.752C276.007 126.06 276.266 126.334 276.574 126.375L277.49 126.422C277.36 127.271 277.304 128.113 277.258 129.029C277.169 134.883 279.317 139.722 282.048 139.713C282.048 139.713 283.823 139.965 286.126 138.866C287.855 138.061 288.807 136.434 289.442 134.691C290.116 134.614 291.615 134.443 292.439 134.348C293.479 134.153 294.344 133.751 294.735 133.857C295.127 133.964 296.294 134.21 297.342 134.09C298.316 133.979 298.648 133.561 299.022 133.518C299.397 133.475 302.128 133.466 303.648 132.154C303.648 132.154 305.281 132.498 305.938 132.271C306.445 132.061 306.976 131.393 307.175 131.143C310.276 137.011 316.916 140.652 324.183 139.82C333.547 138.747 340.206 130.623 339.185 121.708C338.413 114.966 333.482 109.687 327.056 107.918C327.497 107.792 328.137 107.415 328.642 106.522C328.642 106.522 326.848 105.438 323.108 105.259C320.893 105.133 317.764 105.643 314.654 106.986L314.453 106.554C314.652 106.303 314.917 105.969 314.94 105.511C314.981 105.203 314.403 104.131 313.741 102.992C314.347 102.316 314.849 100.74 314.943 98.9079C315.109 96.3842 314.42 94.3382 313.495 94.2164C313.495 94.2164 312.72 94.0774 311.438 94.1484C311.239 94.3989 309.953 95.7605 310.262 98.4574L309.583 97.169C309.653 95.7948 310.141 94.7523 310.539 94.2514C309.865 94.3286 309.116 94.4144 308.234 94.6672L307.354 92.9465C307.553 92.696 307.876 92.2036 307.942 92.1201C307.934 92.0452 307.824 91.7541 307.623 91.3218C307.831 91.1463 308.096 90.8123 308.22 90.5704C308.336 90.2536 308.492 89.6285 308.031 88.9223C307.571 88.2161 306.383 86.4548 305.989 85.6651C305.695 85.0915 305.592 84.1926 305.466 83.7517C305.682 83.651 305.815 83.484 305.789 83.2593C305.755 82.9596 305.504 82.7606 305.204 82.7949C304.905 82.8293 304.706 83.0797 304.74 83.3794C304.766 83.6041 304.933 83.7368 305.091 83.7946C305.068 84.2526 305.162 85.0767 305.289 85.5175C305.432 86.1083 306.848 88.5266 307.124 88.9503C307.316 89.3078 307.077 89.8665 306.953 90.1084C306.76 89.751 306.567 89.3936 306.492 89.4021C306.325 89.2695 306.075 89.0705 305.85 89.0962C305.775 89.1048 305.7 89.1134 305.551 89.1305C305.257 88.557 304.964 87.9834 304.88 87.9171C304.797 87.8507 304.647 87.8679 304.347 87.9022C303.752 86.6802 302.426 83.7203 302.418 83.6454C302.334 83.579 301.701 83.348 300.77 83.8341C299.839 84.3203 299.873 84.6199 299.957 84.6862C299.965 84.7611 301.59 87.6867 302.344 88.9665C302.22 89.2084 302.171 89.4417 302.18 89.5166C302.289 89.8077 303.546 92.1683 303.788 92.2924C303.863 92.2838 303.946 92.3501 304.012 92.2666L306.259 96.639C305.383 96.2839 303.491 95.6658 301.759 95.7882C301.684 95.7968 301.61 95.8054 301.46 95.8225C299.212 96.0799 296.477 97.3798 294.905 100.216C293.448 102.736 292.338 106.961 292.086 108.736C291.769 108.62 291.152 108.539 290.328 108.634C289.954 108.676 289.438 108.811 288.922 108.946C286.801 109.645 282.429 111.891 281.872 112.334C281.325 112.852 281.16 113.403 281.16 113.403C281.16 113.403 279.347 114.141 278.049 116.719C277.924 116.961 277.875 117.194 277.743 117.361L276.544 117.498C276.4 116.908 275.741 116.452 275.142 116.521C274.393 116.606 273.937 117.266 274.014 117.94C274.1 118.689 274.759 119.145 275.434 119.068C276.283 119.198 276.756 118.688 276.837 118.072ZM301.446 84.4397C300.939 84.6496 300.706 84.6004 300.539 84.4678C300.372 84.3351 300.721 84.0675 301.228 83.8576C301.735 83.6477 302.052 83.7632 302.052 83.7632C302.236 84.0457 301.953 84.2298 301.446 84.4397ZM292.248 114.789C292.248 114.789 291.807 114.915 291.3 115.125C291.15 115.142 291.008 115.235 290.867 115.327C290.726 115.419 290.576 115.436 290.435 115.528C290.294 115.62 290.144 115.637 290.003 115.729C289.861 115.821 289.712 115.838 289.645 115.922C289.645 115.922 289.645 115.922 289.57 115.931C289.495 115.939 289.412 115.873 289.328 115.806C289.236 115.665 289.303 115.582 289.444 115.49C289.519 115.481 289.585 115.398 289.66 115.389C289.66 115.389 289.735 115.38 289.801 115.297L289.876 115.288C289.951 115.28 289.951 115.28 290.017 115.196L290.092 115.188C290.167 115.179 290.167 115.179 290.234 115.096L290.309 115.087C290.383 115.078 290.383 115.078 290.45 114.995L290.525 114.986C290.6 114.978 290.6 114.978 290.675 114.969C290.749 114.961 290.749 114.961 290.824 114.952L290.899 114.943C290.974 114.935 291.041 114.851 291.115 114.843C291.115 114.843 291.115 114.843 291.19 114.834C291.265 114.826 291.265 114.826 291.332 114.742C291.764 114.541 292.13 114.423 292.205 114.414C292.355 114.397 292.438 114.464 292.522 114.53C292.455 114.613 292.398 114.772 292.248 114.789ZM292.811 116.394C292.811 116.394 291.722 116.823 290.782 117.234L290.707 117.242C290.566 117.334 290.491 117.343 290.35 117.435C290.283 117.519 290.134 117.536 290.067 117.619L289.992 117.628C289.926 117.711 289.776 117.728 289.71 117.812L289.635 117.82C289.635 117.82 289.635 117.82 289.56 117.829C289.485 117.838 289.402 117.771 289.393 117.696C289.301 117.555 289.367 117.472 289.434 117.388C289.509 117.38 289.5 117.305 289.575 117.296C290.572 116.726 292.535 115.97 292.61 115.962C292.76 115.945 292.843 116.011 292.927 116.077C292.935 116.152 292.877 116.311 292.811 116.394ZM293.374 117.999C293.374 117.999 291.994 118.537 290.573 119.383C290.432 119.475 290.365 119.558 290.215 119.576L290.066 119.593C289.982 119.526 289.965 119.377 289.882 119.31C289.873 119.235 289.948 119.227 290.014 119.143C290.155 119.051 290.222 118.968 290.372 118.95L290.447 118.942C290.588 118.85 290.663 118.841 290.804 118.749C292.084 117.995 293.248 117.558 293.248 117.558C293.398 117.541 293.481 117.608 293.565 117.674C293.582 117.824 293.524 117.982 293.374 117.999ZM298.497 103.751C297.99 103.961 296.46 104.516 295.505 105.46C294.825 106.145 293.913 107.464 293.4 108.282C293.141 108.008 293.427 106.533 294.392 103.69C295.481 100.606 297.205 98.4349 298.22 98.0151C298.802 97.7967 299.185 97.8287 299.427 97.9528C299.519 98.094 299.611 98.2352 299.637 98.46C299.797 99.2005 298.996 103.467 298.497 103.751ZM308.746 105.765C309.046 105.731 309.921 106.086 310.08 106.144L308.375 111.803C307.513 112.889 306.875 113.948 306.321 115.074C306.839 112.966 308.446 105.799 308.746 105.765ZM306.645 92.724C306.438 92.8996 306.005 93.1009 305.83 92.8933C305.479 92.4782 305.453 92.2534 305.66 92.0779C305.802 91.9858 306.009 91.8102 306.142 91.6432L306.645 92.724ZM310.451 100.105C310.16 100.215 309.56 100.283 309.201 99.7933C308.674 99.1705 306.62 95.1556 306.727 94.7639C306.768 94.4556 307.125 94.2629 307.408 94.0788L310.451 100.105ZM313.16 98.5808C313.03 99.4306 312.505 99.4907 312.197 99.4501C312.171 99.2253 312.22 98.992 312.195 98.7673C312.192 98.0845 312.282 97.5429 312.447 96.9928C312.781 97.2581 313.29 97.731 313.16 98.5808ZM313.373 102.427C313.272 102.211 313.097 102.003 312.996 101.787C313.253 101.378 313.599 100.428 313.736 98.9702C313.838 97.2129 313.234 95.9159 313.033 95.4836C313.223 95.1582 313.431 94.9827 313.506 94.9741C313.739 95.0233 314.493 96.3031 314.344 98.9765C314.158 100.667 313.762 101.851 313.373 102.427ZM314.157 105.297C313.932 105.323 313.633 105.357 313.05 105.576C312.102 105.912 311.555 106.43 311.364 106.756L311.171 106.398C311.875 105.255 313.365 105.008 313.365 105.008C313.365 105.008 313.414 104.775 313.181 104.726C312.956 104.752 312.008 105.088 311.539 104.307C310.987 103.459 310.498 101.846 310.804 101.203C310.804 101.203 309.49 101.658 309.293 102.591L309.1 102.233C309.092 102.158 309.19 101.692 310.046 101.214C310.894 100.662 311.51 100.743 311.669 100.801C312.782 102.571 313.93 104.64 314.157 105.297ZM311.375 107.513C311.533 107.571 311.767 107.62 312.075 107.661L312.368 108.234C311.87 108.519 311.38 108.879 310.898 109.313C311.063 108.763 311.277 107.98 311.375 107.513ZM321.498 121.685C321.507 121.76 321.642 122.275 321.218 122.552C321.077 122.644 320.927 122.661 320.769 122.603C320.452 122.488 320.259 122.13 320.259 122.13L312.741 107.509C312.815 107.5 312.882 107.417 312.957 107.408C313.845 109.204 320.492 122.179 320.567 122.171C320.642 122.162 320.867 122.136 320.591 121.713C320.591 121.713 313.466 107.881 313.524 107.722C313.59 107.639 313.939 107.371 314.08 107.279L321.498 121.685ZM315.731 125.002C317.031 127.737 319.796 128.027 319.796 128.027C317.508 125.937 317.8 123.854 318.271 122.662C318.509 124.076 319.845 125.138 321.343 124.966C322.916 124.786 323.969 123.375 323.797 121.877C323.686 120.903 323.058 120.064 322.258 119.7C325.845 119.214 326.989 122.574 326.989 122.574C327.194 121.715 326.834 118.569 324.121 116.755C322.728 115.852 320.803 115.617 319.172 115.955L319.164 115.88C319.605 115.754 320.121 115.619 320.645 115.559C324.391 115.13 327.814 117.85 328.251 121.67C328.689 125.491 325.969 128.914 322.224 129.343C318.478 129.772 315.055 127.052 314.617 123.232C314.463 121.883 314.692 120.567 315.246 119.441C314.818 121.008 314.741 122.99 315.731 125.002ZM309.609 124.564C309.094 120.07 311.345 115.865 315.017 113.471L315.319 114.12C311.929 116.33 309.869 120.209 310.341 124.329C311.019 130.247 316.587 134.466 322.805 133.754C329.023 133.042 333.493 127.673 332.815 121.755C332.137 115.837 326.569 111.617 320.351 112.329C319.377 112.441 318.495 112.693 317.688 112.938L317.386 112.289C318.401 111.869 319.433 111.599 320.556 111.471C327.298 110.699 333.368 115.316 334.106 121.759C334.843 128.201 329.975 134.071 323.233 134.844C316.491 135.616 310.347 131.007 309.609 124.564ZM305.24 122.864C305.24 122.864 305.289 122.63 305.33 122.322C305.321 122.247 305.387 122.164 305.37 122.014C305.362 121.939 305.362 121.939 305.428 121.856C305.419 121.781 305.419 121.781 305.486 121.697C305.477 121.622 305.544 121.539 305.544 121.539C305.535 121.464 305.535 121.464 305.601 121.38C305.668 121.297 305.65 121.147 305.717 121.064L305.708 120.989C305.7 120.914 305.757 120.755 305.749 120.68C305.749 120.68 305.74 120.606 305.815 120.597C305.882 120.513 305.864 120.364 305.931 120.28L305.922 120.205C305.98 120.047 305.963 119.897 306.029 119.813L306.02 119.739C306.087 119.655 306.07 119.505 306.127 119.347C306.119 119.272 306.119 119.272 306.185 119.188C306.243 119.03 306.234 118.955 306.292 118.797C306.292 118.797 306.292 118.797 306.283 118.722C306.341 118.563 306.399 118.405 306.457 118.247C306.448 118.172 306.448 118.172 306.514 118.088C306.572 117.93 306.564 117.855 306.621 117.696C306.613 117.622 306.688 117.613 306.679 117.538C306.737 117.38 306.795 117.221 306.852 117.063C306.968 116.746 307.092 116.504 307.208 116.187C308.29 113.711 310.032 111.69 311.087 110.962C311.718 110.51 312.084 110.392 312.317 110.441C312.476 110.499 312.559 110.565 312.568 110.64L312.577 110.715C312.527 110.948 310.299 112.038 308.776 114.642C307.253 117.245 305.95 121.113 305.811 121.888C305.82 121.963 305.753 122.046 305.762 122.121C305.762 122.121 305.762 122.121 305.771 122.196C305.779 122.271 305.704 122.279 305.713 122.354C305.721 122.429 305.647 122.438 305.655 122.513L305.589 122.596C305.589 122.596 305.589 122.596 305.522 122.68C305.522 122.68 305.448 122.688 305.456 122.763C305.315 122.855 305.24 122.864 305.24 122.864ZM299.052 112.568C298.818 112.519 298.718 112.302 298.842 112.06C298.891 111.827 299.107 111.727 299.349 111.851C301.8 112.708 303.756 112.56 303.756 112.56C303.981 112.534 304.148 112.667 304.174 112.892C304.199 113.117 304.067 113.284 303.842 113.309C303.684 113.251 301.661 113.483 299.052 112.568ZM303.316 115.343C302.717 115.411 300.003 115.57 296.875 114.107C296.708 113.975 296.608 113.758 296.665 113.6C296.798 113.433 297.014 113.332 297.172 113.39C300.392 114.995 303.222 114.519 303.222 114.519C303.446 114.493 303.613 114.626 303.639 114.85C303.665 115.075 303.532 115.242 303.307 115.268C303.391 115.334 303.391 115.334 303.316 115.343ZM296.542 116.498C296.383 116.44 296.274 116.149 296.332 115.991C296.39 115.833 296.681 115.723 296.839 115.781C300.125 117.302 302.955 116.826 302.955 116.826C303.179 116.8 303.346 116.933 303.447 117.149C303.473 117.374 303.34 117.541 303.124 117.642C303.124 117.642 303.049 117.65 302.899 117.667C302.067 117.687 299.502 117.829 296.542 116.498ZM292.563 126.82C292.471 126.679 292.385 125.93 292.233 125.264C292.233 125.264 292.085 123.308 292.149 122.542C292.74 122.398 293.705 122.212 294.229 122.152C294.608 120.818 295.346 119.975 296.179 119.955C297.544 119.95 298.701 122.095 298.785 124.817C298.869 127.54 297.836 129.783 296.479 129.863C295.946 129.848 295.379 129.534 294.927 128.902C294.843 128.836 294.826 128.686 294.743 128.62C294.743 128.62 294.734 128.545 294.65 128.479C294.173 127.623 293.802 126.375 293.789 124.934C293.795 124.326 293.802 123.718 293.891 123.177C293.891 123.177 293.582 125.11 293.526 125.951C293.554 126.859 292.664 127.036 292.563 126.82ZM289.913 133.499C289.971 133.341 290.037 133.257 290.02 133.107C290.077 132.949 290.135 132.791 290.118 132.641C291.017 132.538 292.541 132.591 292.849 132.631C293.232 132.663 293.2 133.047 293.2 133.047C292.252 133.383 290.745 133.48 289.913 133.499ZM287.291 123.857C287.464 123.382 289.178 123.11 289.42 123.234C289.42 123.234 289.429 123.309 289.446 123.458C289.54 124.282 289.667 127.38 289.721 128.512L289.747 128.737C289.764 128.886 289.773 128.961 289.773 128.961C289.773 128.961 289.798 129.186 289.666 129.353C289.666 129.353 289.666 129.353 289.591 129.362C289.591 129.362 289.591 129.362 289.516 129.37L289.366 129.387C288.85 129.522 287.793 129.568 287.609 129.285C287.191 128.953 287.109 124.257 287.291 123.857ZM283.463 112.304C284.959 111.45 287.76 110.066 289.374 109.578C289.524 109.561 289.665 109.469 289.815 109.451C289.457 109.644 289.034 109.92 288.826 110.096C288.42 110.522 288.105 111.089 286.408 111.511C285.385 111.856 284.195 112.068 283.463 112.304ZM282.018 130.836C281.485 130.821 281.074 129.882 281.087 128.666C281.099 127.45 281.521 126.491 281.97 126.44C282.503 126.455 282.914 127.394 282.902 128.61C282.964 129.817 282.551 130.851 282.018 130.836ZM278.814 128.699C278.909 124.893 279.989 121.733 281.277 121.055C280.317 122.607 279.784 125.248 279.71 127.913C279.651 130.045 279.882 132.067 280.362 133.606C280.842 135.145 281.553 136.05 282.403 136.181C282.062 136.523 281.705 136.716 281.322 136.684C279.806 136.706 278.712 133.112 278.814 128.699ZM279.264 116.731C280.341 114.863 281.779 114.167 282.761 114.13C283.744 114.093 284.198 115.407 284.198 115.407C284.324 115.848 283.682 115.542 282.252 116.313C280.823 117.084 279.346 118.771 278.899 119.506C278.527 120.231 278.27 120.64 278.178 120.499C278.011 120.366 278.188 118.6 279.264 116.731ZM294.864 125.039C294.903 126.704 295.515 128.076 296.198 128.074C296.881 128.071 297.326 126.654 297.287 124.989C297.248 123.324 296.635 121.952 295.952 121.954C295.27 121.957 294.816 123.299 294.864 125.039Z" fill="white"/>
<path d="M128.6 77.9358C128.6 77.9358 94.7 73.4358 37.6 116.636L36.2 121.836L37.8 120.636L38.6 118.036C38.6 118.036 94.2 78.8358 125.4 81.0358L124.4 88.3358C124.4 88.3358 94.9 87.7358 30 126.236L29 145.636C29 145.636 64 135.136 100.8 140.736C100.8 140.736 112.1 130.336 118.6 106.336C118.6 106.336 117.5 123.436 103.9 140.736C103.9 140.636 145.1 104.436 128.6 77.9358ZM129.4 98.1358C129.4 98.1358 127.1 95.1358 125.9 94.3358C125.9 94.3358 90.8 93.8358 34.4 128.936C34.4 128.936 84.3 91.4358 126.7 91.9358C126.7 91.9358 128.4 93.0358 130.1 95.8358C130.1 95.8358 129.9 97.2358 129.4 98.1358ZM126.7 88.8358L128 82.5358C131.4 85.9358 130.4 93.5358 130.4 93.5358C128.8 89.8358 126.7 88.8358 126.7 88.8358Z" fill="white"/>
<path d="M48.3 114.136C75.8 98.0358 102.5 90.0358 102.5 90.0358L100.3 87.0358C100.4 87.0358 72.3 97.3358 48.3 114.136Z" fill="white"/>
<path d="M83.8 87.0358H61.9C49.6 94.9358 46.2 108.436 46.2 108.436C65.5 94.4358 83.8 87.0358 83.8 87.0358ZM77.3 88.6358C71.9 90.8358 68.7 92.9358 68.7 92.9358L63.9 89.3358L77.3 88.6358ZM61.5 90.3358L66.7 94.2358C63.1 95.6358 59.8 98.1358 59.8 98.1358L53.7 97.1358C56.8 93.3358 61.5 90.3358 61.5 90.3358Z" fill="white"/>
<path d="M44.6 108.436C45.7 103.136 48.4 98.5358 48.4 98.5358C39.7 102.036 36.4 109.536 36.4 109.536C40.6 107.536 44.6 108.436 44.6 108.436Z" fill="white"/>
<path d="M130.64 22.0471C130.818 22.3135 130.997 22.4911 131.175 22.5799C131.354 22.6687 131.443 22.6687 131.621 22.7575L132.246 22.8464L134.923 23.468L140.366 24.7114L151.252 27.2869C155.356 28.2638 159.461 29.1519 163.565 30.1288C163.922 30.2176 164.279 30.3064 164.636 30.3952C164.993 30.484 165.35 30.5728 165.707 30.6616C167.581 31.1057 169.455 31.5497 171.328 31.9938C171.596 32.0826 171.864 32.0826 172.131 32.1714C172.399 32.2602 172.578 32.2602 172.845 32.349C175.433 32.9707 178.021 33.5924 180.608 34.214C180.965 34.3028 181.322 34.3917 181.679 34.4805C182.036 34.5693 182.393 34.6581 182.75 34.7469C183.999 35.0133 185.337 35.3686 186.587 35.635C189.263 36.2567 191.851 36.8783 194.528 37.5888C196.759 37.7664 198.989 37.6776 201.22 37.5888C203.451 37.5 205.771 37.2336 208.002 36.8783C212.374 36.1679 216.568 35.1021 220.672 33.2371C220.761 33.2371 220.761 33.2371 220.851 33.1483C220.851 33.1483 220.851 33.1483 220.94 33.1483C217.014 35.4574 212.641 36.8783 208.269 37.8552C206.039 38.3881 203.719 38.6545 201.399 38.8321C199.079 39.0098 196.759 39.0986 194.35 39.0986H194.26C190.245 38.2105 186.23 37.3224 182.214 36.4343C182.036 36.4343 181.768 36.3455 181.59 36.2567C181.411 36.2567 181.233 36.1679 181.054 36.1679C180.697 36.079 180.341 35.9902 179.894 35.9014C177.396 35.3686 174.987 34.8357 172.488 34.3028C172.399 34.9245 172.221 35.5462 172.042 36.1679C171.775 35.4574 171.685 34.7469 171.507 34.0364C169.455 33.5924 167.313 33.1483 165.261 32.6155C164.904 32.5266 164.547 32.4378 164.19 32.349C163.833 32.2602 163.476 32.1714 163.119 32.0826C162.852 33.5036 162.762 34.9245 162.852 36.079C163.209 36.079 163.565 36.079 164.012 36.079C164.369 36.079 164.725 36.079 165.082 36.079H165.172C165.35 36.079 165.529 36.079 165.707 36.079C169.633 36.1679 173.47 36.3455 177.396 36.6119C177.931 36.6119 178.378 36.7007 178.913 36.7007C174.541 37.2336 170.168 37.5888 165.796 37.7664C165.707 37.7664 165.618 37.7664 165.529 37.7664C165.172 37.7664 164.725 37.7664 164.369 37.8552C164.369 37.8552 164.369 37.8552 164.279 37.8552C163.922 37.8552 163.565 37.8552 163.209 37.944C161.87 38.0329 160.532 38.0329 159.193 38.1217C157.052 38.2105 154.999 38.5657 152.947 39.0098C151.876 39.2762 150.895 39.5426 149.913 39.8979L149.11 40.4307L148.932 40.5195C148.932 40.6083 148.932 40.6083 148.932 40.6083C149.021 40.6083 148.753 40.6083 149.021 40.6083H149.824L151.43 40.6972C152.501 40.6972 153.661 40.786 154.732 40.786C158.033 40.9636 161.424 41.1412 164.725 41.4076C165.172 41.4076 165.618 41.4964 165.975 41.4964C166.064 41.4964 166.153 41.4964 166.242 41.4964C166.778 41.5853 167.313 41.5853 167.848 41.6741C167.402 41.6741 166.956 41.7629 166.51 41.7629C166.421 41.7629 166.332 41.7629 166.242 41.7629C165.885 41.7629 165.439 41.8517 165.082 41.9405C165.261 42.1181 165.439 42.2957 165.618 42.4734C165.796 42.651 165.975 42.8286 166.153 42.9174C168.83 45.1377 172.31 45.3153 173.381 45.3153C173.648 45.3153 173.827 45.3153 173.827 45.3153L228.881 42.0293C240.124 41.3188 248.869 39.1874 254.936 35.7238L257.167 35.3686C256.988 35.1909 256.721 34.9245 256.542 34.7469C256.364 34.5693 256.185 34.3028 256.007 34.1252C255.918 34.0364 255.918 33.9476 255.828 33.9476C255.739 33.8588 255.65 33.77 255.561 33.6812C255.382 33.5036 255.293 33.2371 255.115 33.0595C253.776 31.1057 252.884 28.8854 252.438 26.5764C253.419 28.7078 254.668 30.6616 256.096 32.4378C256.275 32.6155 256.364 32.7931 256.542 32.9707C256.631 33.0595 256.721 33.1483 256.81 33.3259C256.899 33.4147 256.899 33.4147 256.988 33.5036C257.167 33.6812 257.435 33.9476 257.613 34.1252C257.702 34.214 257.791 34.3028 257.881 34.3917C257.97 34.4805 258.148 34.5693 258.238 34.6581C258.416 34.7469 258.505 34.8357 258.684 35.0133C258.773 35.1021 258.862 35.1909 258.951 35.1909C259.219 35.3686 259.398 35.5462 259.665 35.635C260.468 36.079 261.45 36.4343 262.431 36.6119C262.521 36.6119 262.61 36.7007 262.699 36.7007C264.216 36.8783 265.644 36.6119 266.893 35.9014C267.964 35.2798 268.945 34.3917 269.659 33.5036C269.659 33.5036 269.659 33.5036 269.659 33.4147C269.837 33.4147 269.927 33.4147 270.105 33.4147L279.296 31.905C283.757 31.1945 287.951 29.2407 291.699 26.754C292.412 26.3099 292.68 25.4218 292.412 24.6226C292.145 23.8233 291.342 23.2904 290.539 23.3792L265.465 25.5107C268.142 20.9813 268.767 17.0737 268.499 16.1856C267.964 14.0542 258.327 9.08082 247.084 9.08082C243.158 9.08082 239.41 9.70249 235.841 10.857C235.306 11.0346 234.681 11.2123 234.146 11.3899C232.807 10.9458 222.189 7.74867 210.946 12.3668C207.199 13.8766 202.023 16.8961 196.848 20.1821L198.722 20.3597L200.239 20.4485H201.042L202.023 20.5373H202.38L203.362 20.6261H204.522L205.592 20.7149L207.555 20.8925L210.143 21.0702H210.589L232.629 22.9352L215.765 19.4716C223.617 16.9849 231.201 14.6758 236.644 12.8996C240.035 11.8339 243.515 11.3011 247.173 11.3011C251.813 11.3011 255.918 12.1892 259.13 13.2549C259.219 13.2549 259.219 13.2549 259.308 13.1661V13.2549H259.398C259.308 13.3437 259.219 13.4325 259.13 13.5213C258.862 13.7877 258.684 14.143 258.505 14.4982C258.059 15.4751 257.791 16.5409 257.881 17.7842C257.881 18.4947 258.059 19.2052 258.327 19.9156C258.416 20.1821 258.505 20.3597 258.684 20.6261C258.773 20.8037 258.862 20.9813 259.041 21.2478C259.13 21.4254 259.308 21.603 259.487 21.7806C259.844 22.1359 260.29 22.4911 260.825 22.6687C260.111 22.8464 259.219 22.6687 258.595 22.2247C255.204 24.1785 251.456 25.6883 247.619 26.9316C244.853 27.8197 241.998 28.5302 239.143 29.1519C241.016 28.619 242.801 28.0861 244.675 27.4645C245.032 27.3757 245.389 27.198 245.745 27.1092C248.779 26.0435 251.635 24.7114 254.49 23.2016C255.561 22.5799 256.542 21.9583 257.613 21.3366C257.435 21.0702 257.256 20.8925 257.078 20.6261C256.007 21.159 255.025 21.6918 253.955 22.1359C250.832 23.6456 247.53 24.8002 244.229 25.7771C240.927 26.8428 237.536 27.5533 234.056 28.3526C232.718 28.619 231.38 28.8854 230.041 29.1519C234.413 26.4876 237.358 23.8233 237.358 23.8233C229.952 23.8233 222.457 23.5568 215.051 23.2016L205.592 22.7575H205.325L202.469 22.5799H200.952L200.06 22.4911L197.562 22.3135L193.636 22.1359L192.743 22.0471C187.925 21.7806 183.196 21.5142 178.378 21.2478C177.931 21.2478 177.574 21.159 177.128 21.159C176.682 21.159 176.325 21.0702 175.879 21.0702C174.808 20.9814 173.648 20.8925 172.578 20.8925C172.399 20.8925 172.221 20.8925 172.131 20.8925C171.953 20.8925 171.775 20.8925 171.685 20.8925C170.793 20.8037 169.901 20.8037 168.919 20.7149C168.473 20.7149 168.116 20.6261 167.67 20.6261C167.224 20.6261 166.867 20.5373 166.421 20.5373C160.353 20.1821 154.286 19.738 148.129 19.294L136.975 18.5835C135.994 18.4947 135.191 18.4059 134.388 18.4947C133.584 18.5835 132.871 18.8499 132.157 19.2052C131.8 19.3828 131.443 19.6492 131.175 19.8268L131.086 20.0044L130.908 20.1821C130.818 20.2709 130.729 20.3597 130.729 20.4485C130.372 20.9813 130.372 21.603 130.64 22.0471ZM229.952 12.6332C224.42 14.4094 217.728 16.452 211.125 18.5835L210.857 18.4947L224.866 12.8108L206.485 17.6066H206.395C207.288 16.8073 208.448 16.008 209.697 15.2975C210.411 14.9423 211.125 14.6758 211.749 14.4094C218.977 11.4787 225.937 11.9227 229.952 12.6332ZM266.357 16.7185C265.019 17.9618 263.591 19.0275 262.074 20.0933C261.718 20.0044 261.361 19.738 261.004 19.4716C260.914 19.3828 260.736 19.294 260.647 19.1163C261.539 18.4947 262.342 17.7842 263.145 17.0737C262.253 17.6954 261.271 18.2282 260.379 18.7611C260.111 18.4059 259.844 17.9618 259.754 17.429C259.487 16.6297 259.398 15.6528 259.576 14.7647C259.665 14.3206 259.754 13.7877 260.022 13.3437C263.324 14.6758 265.644 16.008 266.357 16.7185ZM259.13 33.3259C259.844 33.77 260.558 34.0364 261.271 34.214C261.807 34.3028 262.342 34.3917 262.788 34.3917C262.878 34.3917 263.056 34.3917 263.234 34.3917C263.324 34.3917 263.502 34.3917 263.591 34.3028C263.859 34.214 264.127 34.214 264.394 34.1252C265.376 33.8588 266.357 33.2371 267.16 32.4378C268.856 30.8393 270.016 28.7078 270.997 26.4876C270.819 28.0861 270.373 29.7735 269.659 31.2833C269.391 31.6385 269.124 31.9938 268.856 32.349C268.32 32.9707 267.696 33.5924 266.982 34.0364C265.733 34.8357 264.305 35.2798 262.878 35.0133C262.521 35.0133 262.253 34.9245 261.896 34.8357C260.914 34.4805 260.022 33.9476 259.13 33.3259ZM172.667 43.2726C172.756 43.2726 172.756 43.2726 172.845 43.2726C172.845 43.2726 172.756 43.2726 172.667 43.2726ZM171.596 43.095C171.685 43.095 171.864 43.095 171.953 43.1838C171.775 43.1838 171.685 43.095 171.596 43.095ZM170.971 43.0062C171.061 43.0062 171.15 43.095 171.239 43.095C171.15 43.0062 171.061 43.0062 170.971 43.0062ZM170.347 42.8286C170.436 42.8286 170.525 42.9174 170.615 42.9174C170.615 42.9174 170.436 42.8286 170.347 42.8286ZM222.814 38.7433C225.758 38.1217 228.614 37.4112 231.469 36.6119C234.949 35.7238 238.518 34.7469 241.998 33.77C245.567 32.7931 249.315 32.349 252.973 32.7931C249.315 33.2371 245.835 33.9476 242.444 35.1021C238.964 36.1679 235.484 37.2336 231.915 38.1217C228.346 39.0098 224.777 39.7202 221.207 40.2531C220.851 40.3419 220.583 40.3419 220.226 40.4307C220.048 40.4307 219.958 40.4307 219.78 40.5195C216.657 40.9636 213.445 41.23 210.322 41.23C210.768 41.1412 211.125 41.1412 211.571 41.0524C214.783 40.5195 217.906 39.8979 221.029 39.1874C221.564 39.0098 222.189 38.921 222.814 38.7433ZM152.144 22.0471C154.821 22.1359 157.498 22.3135 160.175 22.4023L165.439 22.7575L167.759 22.9352H168.116C169.187 23.024 170.258 23.1128 171.328 23.2016C171.507 23.2016 171.775 23.2016 171.953 23.2904C172.131 23.2904 172.399 23.2904 172.578 23.3792C173.916 23.468 175.254 23.5568 176.593 23.6457C177.039 23.6457 177.396 23.7345 177.842 23.7345C178.288 23.7345 178.645 23.8233 179.091 23.8233C180.787 24.0009 182.482 24.0897 184.177 24.2673C185.962 24.4449 187.657 24.6226 189.442 24.8002C189.799 24.8002 190.245 24.889 190.602 24.889C190.78 24.889 191.048 24.889 191.227 24.9778C191.851 25.0666 192.476 25.0666 193.011 25.1554C193.19 25.1554 193.368 25.1554 193.457 25.2442C194.439 25.333 195.331 25.4218 196.313 25.5107C196.759 25.5995 197.205 25.5995 197.651 25.6883C198.454 25.7771 199.346 25.8659 200.149 25.9547L208.18 26.8428C210.857 27.198 213.534 27.5533 216.211 27.9085C213.534 27.8197 210.857 27.6421 208.18 27.5533L200.149 27.0204C198.454 26.9316 196.669 26.754 194.974 26.6652C194.35 26.5764 193.725 26.5764 193.1 26.4876C192.476 26.3988 191.851 26.3988 191.137 26.3099C190.78 26.3099 190.334 26.2211 189.977 26.2211C189.71 26.2211 189.531 26.2211 189.263 26.1323C188.639 26.0435 188.014 26.0435 187.39 25.9547C187.211 25.9547 187.033 25.9547 186.854 25.9547C185.873 25.8659 184.891 25.7771 183.91 25.6883C182.393 25.5107 180.876 25.4218 179.359 25.2442C179.002 25.2442 178.556 25.1554 178.199 25.1554C177.842 25.1554 177.396 25.0666 177.039 25.0666C175.611 24.889 174.184 24.8002 172.667 24.6226C172.399 24.6226 172.221 24.5338 171.953 24.5338C171.685 24.5338 171.507 24.4449 171.239 24.4449C170.168 24.3561 169.098 24.2673 167.938 24.0897L167.313 24.0009L164.993 23.8233L159.907 23.2016C157.498 22.7575 154.821 22.4911 152.144 22.0471Z" fill="white"/>
<path d="M240.303 13.3437C242.979 12.8108 245.746 12.5444 248.512 12.722C249.85 12.8108 251.278 12.9885 252.616 13.1661C253.955 13.4325 255.293 13.7877 256.542 14.2318C253.865 13.7877 251.189 13.5213 248.512 13.6101C245.835 13.6101 243.158 13.8766 240.57 14.4982C237.983 15.0311 235.395 15.9192 232.807 16.6297C230.22 17.3401 227.632 18.0506 224.955 18.6723C227.454 17.6066 230.041 16.7185 232.54 15.8304C235.038 14.8535 237.536 13.8766 240.303 13.3437Z" fill="white"/>
<path d="M174.63 18.4947C173.916 18.4059 173.113 18.4059 172.399 18.3171C172.399 17.9618 172.31 17.6066 172.221 17.2513C172.221 16.9849 172.131 16.7185 172.131 16.5409C172.131 16.8073 172.042 17.0737 172.042 17.3401C171.953 17.6954 171.953 17.9618 171.953 18.3171C171.507 18.3171 171.061 18.2282 170.615 18.2282C170.168 18.2282 169.633 18.1394 169.187 18.1394C168.741 18.1394 168.295 18.0506 167.848 18.0506C169.187 16.0968 170.704 15.1199 172.488 14.9423C172.578 14.9423 172.667 14.9423 172.845 14.9423C174.898 14.9423 176.325 16.5409 177.485 18.6723C177.039 18.6723 176.593 18.5835 176.147 18.5835C175.522 18.5835 175.076 18.5835 174.63 18.4947Z" fill="white"/>
<path d="M262.788 2.24245C261.985 1.88721 261.004 1.70959 260.111 1.70959C259.13 1.70959 258.327 1.97602 257.435 2.42007C255.739 3.30817 254.311 4.81794 253.152 6.59414C253.687 4.55151 254.847 2.59769 256.721 1.26554C257.613 0.555062 258.862 0.199822 259.933 0.0222025C261.182 -0.0666075 262.342 0.111012 263.413 0.555062C265.554 1.44316 267.25 3.04174 268.499 4.81794C269.748 6.59414 270.551 8.63677 270.908 10.6794C269.837 8.9032 268.677 7.127 267.339 5.61723C266.09 4.28508 264.573 2.95293 262.788 2.24245Z" fill="white"/>
<path d="M11.1326 109.339C-0.0362206 39.3981 91.8513 29.7826 142.5 34.302C30.0352 32.598 7.58373 76.9896 11.1326 109.339C11.9084 114.197 13.1814 119.346 15 124.802C13.15 120.214 11.7491 114.958 11.1326 109.339Z" fill="white"/>
</svg>
