<svg width="22" height="20" viewBox="0 0 22 20" fill="none" xmlns="http://www.w3.org/2000/svg">
<path d="M1.83333 4.58333V3.3275C1.83501 3.10865 1.93133 2.89918 2.10147 2.74435C2.27162 2.58951 2.50193 2.50175 2.74267 2.5H19.2573C19.7597 2.5 20.1667 2.87083 20.1667 3.3275V16.6725C20.165 16.8914 20.0687 17.1008 19.8985 17.2557C19.7284 17.4105 19.4981 17.4983 19.2573 17.5H2.74267C2.50141 17.4998 2.27012 17.4125 2.09962 17.2573C1.92911 17.1022 1.83333 16.8918 1.83333 16.6725V15.8333H18.3333V6.08333L11 12.0833L1.83333 4.58333ZM0 8.33333H4.58333V10H0V8.33333ZM0 12.5H7.33333V14.1667H0V12.5Z" fill="black"/>
</svg>
