<svg width="64" height="50" viewBox="0 0 64 50" fill="none" xmlns="http://www.w3.org/2000/svg">
<path d="M53.6563 42.1073C53.6563 42.8666 53.1463 43.413 52.4124 43.413C51.6564 43.413 51.1684 42.8325 51.1684 42.1073C51.1684 41.3821 51.6564 40.8015 52.4124 40.8015C53.1463 40.8015 53.6563 41.3821 53.6563 42.1073ZM19.1234 40.8015C18.3334 40.8015 17.8794 41.3821 17.8794 42.1073C17.8794 42.8325 18.3354 43.413 19.1234 43.413C19.8454 43.413 20.3334 42.8666 20.3334 42.1073C20.3214 41.3821 19.8454 40.8015 19.1234 40.8015ZM32.179 40.7694C31.579 40.7694 31.211 41.1591 31.123 41.7397H33.245C33.145 41.1029 32.757 40.7694 32.179 40.7694ZM44.1566 40.8015C43.4006 40.8015 42.9467 41.3821 42.9467 42.1073C42.9467 42.8325 43.4026 43.413 44.1566 43.413C44.9126 43.413 45.4006 42.8666 45.4006 42.1073C45.4006 41.3821 44.9106 40.8015 44.1566 40.8015ZM55.9223 43.7143C55.9223 43.7485 55.9563 43.7706 55.9563 43.8369C55.9563 43.871 55.9223 43.8931 55.9223 43.9594C55.8883 43.9936 55.8883 44.0157 55.8663 44.0478C55.8323 44.082 55.8103 44.1041 55.7443 44.1041C55.7103 44.1382 55.6883 44.1382 55.6223 44.1382C55.5883 44.1382 55.5663 44.1382 55.5003 44.1041C55.4663 44.1041 55.4443 44.0699 55.4123 44.0478C55.3783 44.0137 55.3563 43.9916 55.3563 43.9594C55.3223 43.9032 55.3223 43.871 55.3223 43.8369C55.3223 43.7806 55.3223 43.7485 55.3563 43.7143C55.3563 43.6581 55.3903 43.626 55.4123 43.5918C55.4463 43.5577 55.4683 43.5577 55.5003 43.5356C55.5563 43.5014 55.5883 43.5014 55.6223 43.5014C55.6783 43.5014 55.7103 43.5014 55.7443 43.5356C55.8003 43.5677 55.8323 43.5677 55.8663 43.5918C55.9003 43.6159 55.8883 43.6581 55.9223 43.7143ZM55.6783 43.871C55.7343 43.871 55.7343 43.8369 55.7663 43.8369C55.8003 43.8027 55.8003 43.7806 55.8003 43.7485C55.8003 43.7164 55.8003 43.6922 55.7663 43.6601C55.7343 43.6601 55.7103 43.626 55.6443 43.626H55.4663V44.0157H55.5543V43.859H55.5883L55.7103 44.0157H55.7983L55.6783 43.871ZM64 5.35757V44.6424C63.9995 46.0632 63.4373 47.4256 62.4372 48.4302C61.437 49.4348 60.0806 49.9995 58.6662 50H5.33383C3.91938 49.9995 2.563 49.4348 1.56283 48.4302C0.562656 47.4256 0.000530057 46.0632 0 44.6424V5.35757C0.000530057 3.93682 0.562656 2.57441 1.56283 1.56978C2.563 0.56516 3.91938 0.000532417 5.33383 0H58.6662C60.0806 0.000532417 61.437 0.56516 62.4372 1.56978C63.4373 2.57441 63.9995 3.93682 64 5.35757ZM7.11378 20.9361C7.11378 29.4737 14.0136 36.3921 22.5013 36.3921C25.5241 36.3835 28.4784 35.4876 31.001 33.8148C22.9013 27.1977 22.9573 14.7087 31.001 8.08959C28.4809 6.41147 25.5249 5.51515 22.5013 5.51225C14.0136 5.50221 7.11378 12.4307 7.11378 20.9361ZM32.001 33.0795C39.8348 26.9405 39.8008 14.9779 32.001 8.80675C24.2012 14.9779 24.1672 26.9526 32.001 33.0795ZM16.1895 41.595C16.1895 40.6247 15.5555 39.9879 14.5555 39.9538C14.0436 39.9538 13.4996 40.1105 13.1336 40.679C12.8676 40.221 12.4116 39.9538 11.7776 39.9538C11.5473 39.9502 11.3195 40.0033 11.1142 40.1083C10.9089 40.2134 10.7323 40.3672 10.5997 40.5564V40.0663H9.6897V44.1623H10.5997C10.5997 42.053 10.3217 40.7915 11.5996 40.7915C12.7336 40.7915 12.5116 41.9305 12.5116 44.1623H13.3896C13.3896 42.1193 13.1116 40.7915 14.3896 40.7915C15.5235 40.7915 15.2995 41.9084 15.2995 44.1623H16.2115V41.595H16.1895ZM21.1793 40.0663H20.3014V40.5564C20.146 40.3617 19.9476 40.2059 19.722 40.1013C19.4965 39.9968 19.2498 39.9463 19.0014 39.9538C17.8574 39.9538 16.9795 40.8698 16.9795 42.1073C16.9795 43.3568 17.8574 44.2607 19.0014 44.2607C19.5794 44.2607 20.0014 44.0478 20.3014 43.6581V44.1724H21.1793V40.0663ZM25.6792 42.9229C25.6792 41.2495 23.1353 42.0068 23.1353 41.2254C23.1353 40.5886 24.4572 40.691 25.1912 41.1029L25.5572 40.3777C24.5132 39.6967 22.2013 39.7087 22.2013 41.2937C22.2013 42.8887 24.7452 42.2198 24.7452 42.9671C24.7452 43.6701 23.2453 43.6139 22.4453 43.0554L22.0573 43.7585C23.3013 44.6063 25.6792 44.4275 25.6792 42.9208V42.9229ZM29.6131 43.9594L29.3691 43.2001C28.9471 43.4331 28.0131 43.6902 28.0131 42.7421V40.8899H29.4691V40.0643H28.0131V38.8148H27.1012V40.0643H26.2572V40.8799H27.1012V42.7441C27.1012 44.7087 29.0231 44.3511 29.6131 43.9594ZM31.089 42.4648H34.1449C34.1449 40.6569 33.323 39.9417 32.211 39.9417C31.033 39.9417 30.1891 40.8236 30.1891 42.0952C30.1891 44.3833 32.701 44.763 33.9449 43.6802L33.523 43.0112C32.657 43.7264 31.345 43.6581 31.089 42.4648ZM37.6568 40.0663C37.1468 39.8433 36.3689 39.8654 35.9689 40.5564V40.0663H35.0569V44.1623H35.9689V41.8521C35.9689 40.5564 37.0248 40.7252 37.3908 40.914L37.6568 40.0663ZM38.8348 42.1073C38.8348 40.8337 40.1247 40.4219 41.1347 41.1691L41.5567 40.444C40.2667 39.4295 37.9228 39.9859 37.9228 42.1173C37.9228 44.327 40.4107 44.773 41.5567 43.7907L41.1347 43.0655C40.1127 43.7907 38.8348 43.3568 38.8348 42.1053V42.1073ZM46.2446 40.0663H45.3326V40.5564C44.4106 39.329 42.0107 40.0221 42.0107 42.1073C42.0107 44.2507 44.4986 44.8634 45.3326 43.6581V44.1724H46.2446V40.0663ZM49.9884 40.0663C49.7224 39.9317 48.7665 39.7429 48.3005 40.5564V40.0663H47.4225V44.1623H48.3005V41.8521C48.3005 40.6247 49.3005 40.7031 49.7224 40.914L49.9884 40.0663ZM54.4663 38.403H53.5883V40.5564C52.6764 39.3411 50.2664 39.9879 50.2664 42.1073C50.2664 44.2728 52.7664 44.8513 53.5883 43.6581V44.1724H54.4663V38.403ZM55.3123 30.0221V30.5364H55.4003V30.0221H55.6103V29.9337H55.0983V30.0221H55.3123ZM56.0442 43.8369C56.0442 43.7806 56.0443 43.7143 56.0122 43.6581C55.9783 43.6239 55.9562 43.5697 55.9243 43.5356C55.8923 43.5014 55.8363 43.4793 55.8023 43.4472C55.7463 43.4472 55.6803 43.413 55.6243 43.413C55.5903 43.413 55.5363 43.4472 55.4683 43.4472C55.4244 43.4719 55.3835 43.5016 55.3463 43.5356C55.2903 43.5677 55.2583 43.6239 55.2583 43.6581C55.2243 43.7143 55.2243 43.7806 55.2243 43.8369C55.2243 43.871 55.2243 43.9253 55.2583 43.9936C55.2583 44.0277 55.2923 44.082 55.3463 44.1161C55.38 44.1542 55.4217 44.1843 55.4683 44.2045C55.5243 44.2366 55.5903 44.2366 55.6243 44.2366C55.6803 44.2366 55.7463 44.2366 55.8023 44.2045C55.8363 44.1703 55.8903 44.1483 55.9243 44.1161C55.9583 44.084 55.9803 44.0277 56.0122 43.9936C56.0443 43.9273 56.0442 43.871 56.0442 43.8369ZM56.4002 29.9217H56.2442L56.0662 30.3114L55.8883 29.9217H55.7323V30.5243H55.8203V30.0663L55.9983 30.456H56.1202L56.2762 30.0663V30.5243H56.3982L56.4002 29.9217ZM56.8882 20.9361C56.8882 12.4307 49.9884 5.50221 41.5007 5.50221C38.4778 5.50982 35.5231 6.40575 33.001 8.07955C41.0127 14.6987 41.1347 27.2198 33.001 33.8047C35.5225 35.4799 38.4776 36.376 41.5007 36.3821C49.9884 36.3941 56.8882 29.4737 56.8882 20.9361Z" fill="white"/>
</svg>
