<svg width="64" height="50" viewBox="0 0 64 50" fill="none" xmlns="http://www.w3.org/2000/svg">
<path d="M52.2344 22.2439C52.2344 22.2439 53.0783 26.3961 53.2683 27.266H49.5584L51.3364 22.4106C51.3144 22.4448 51.7024 21.3941 51.9244 20.7473L52.2344 22.2439ZM64 5.35757V44.6424C63.9995 46.0632 63.4373 47.4256 62.4372 48.4302C61.437 49.4348 60.0806 49.9995 58.6662 50H5.33383C3.91938 49.9995 2.563 49.4348 1.56283 48.4302C0.562656 47.4256 0.000530057 46.0632 0 44.6424V5.35757C0.000530057 3.93682 0.562656 2.57441 1.56283 1.56979C2.563 0.565161 3.91938 0.000532417 5.33383 0H58.6662C60.0806 0.000532417 61.437 0.565161 62.4372 1.56979C63.4373 2.57441 63.9995 3.93682 64 5.35757ZM16.9455 33.3929L23.9673 16.0727H19.2454L14.8795 27.9028L14.4015 25.5042L12.8456 17.5352C12.5896 16.4303 11.8016 16.1169 10.8237 16.0727H3.63589L3.55789 16.4182C5.20399 16.8239 6.78297 17.4667 8.24574 18.3266L12.2236 33.3929H16.9455ZM27.4351 33.415L30.2351 16.0727H25.7692L22.9813 33.415H27.4351ZM42.9787 27.7461C43.0007 25.7714 41.8007 24.2648 39.2348 23.0253C37.6688 22.2318 36.7129 21.6975 36.7129 20.8819C36.7349 20.1446 37.5248 19.3853 39.2788 19.3853C40.4212 19.3529 41.5563 19.5781 42.6007 20.0442L43.0007 20.233L43.6126 16.4825C42.3359 15.9916 40.9799 15.7416 39.6128 15.7453C35.2009 15.7453 32.101 18.1117 32.079 21.4805C32.045 23.9695 34.3009 25.3536 35.9909 26.1892C37.7128 27.037 38.3028 27.5954 38.3028 28.3427C38.2808 29.5038 36.9028 30.0382 35.6249 30.0382C33.8469 30.0382 32.891 29.7589 31.435 29.1121L30.847 28.8329L30.2251 32.728C31.269 33.2081 33.203 33.632 35.2029 33.6541C39.8908 33.6641 42.9467 31.3319 42.9807 27.7401L42.9787 27.7461ZM58.6662 33.415L55.0663 16.0727H51.6104C50.5444 16.0727 49.7324 16.3861 49.2765 17.5131L42.6427 33.417H47.3305C47.3305 33.417 48.0965 31.2736 48.2645 30.8176H53.9983C54.1323 31.4323 54.5323 33.417 54.5323 33.417L58.6662 33.415Z" fill="white"/>
</svg>
