<svg width="59" height="57" viewBox="0 0 59 57" fill="none" xmlns="http://www.w3.org/2000/svg">
<path d="M36.1132 24.3909C35.1986 27.9251 29.5042 26.1295 27.734 25.645L29.3567 19.4315C31.186 19.9446 37.0573 20.6856 36.1132 24.3909ZM26.9374 28.8372L25.1671 35.7062C27.3504 36.2477 34.1069 38.3284 35.11 34.4521C36.1722 30.4048 29.1207 29.3502 26.9374 28.8372ZM58.1234 35.3927C54.1698 50.6697 38.1785 59.9614 22.3642 56.1421C6.54994 52.3229 -3.05959 36.8748 0.885131 21.5977C1.82231 17.9668 3.49074 14.5498 5.79514 11.5419C8.09953 8.53397 10.9947 5.99407 14.3154 4.06723C17.6361 2.14039 21.3171 0.864372 25.1484 0.312048C28.9796 -0.240276 32.8859 -0.0580836 36.6443 0.84822C52.429 4.66749 62.0474 20.1156 58.1234 35.3927ZM36.0247 17.2369L37.3524 12.1065L34.1069 11.394L32.8087 16.3248C31.9531 16.1253 31.0975 15.9258 30.2123 15.7548L31.5105 10.7099L28.2946 9.96887L26.9669 15.0707C26.2588 14.8997 25.5507 14.7572 24.9016 14.5862L20.4464 13.5031L19.5613 16.8379C19.5613 16.8379 21.9807 17.3794 21.9217 17.4079C23.2493 17.7214 23.4854 18.5195 23.4264 19.232L19.7973 33.2835C19.6498 33.6825 19.1778 34.1956 18.3221 34.0531C18.3516 34.0816 15.9618 33.483 15.9618 33.483L14.3686 37.0458L18.5582 38.0719C19.3548 38.2714 20.1219 38.4709 20.889 38.6419L19.5318 43.8293L22.7773 44.6273L24.105 39.4685C24.9901 39.6965 25.8457 39.896 26.6718 40.124L25.3441 45.2259L28.5896 46.0239L29.9468 40.8366C35.4051 41.8341 39.5947 41.4351 41.3059 36.6183C42.7811 32.7705 41.3059 30.4903 38.3555 29.0367C40.4798 28.4952 42.073 27.2126 42.5156 24.4194C43.1057 20.6286 40.0963 18.605 36.0247 17.2369Z" fill="white"/>
</svg>
