<svg width="67" height="48" viewBox="0 0 67 48" fill="none" xmlns="http://www.w3.org/2000/svg">
<path d="M30.7083 14.3333C30.7083 20.5029 25.7113 25.5 19.5417 25.5C13.3721 25.5 8.375 20.5029 8.375 14.3333C8.375 8.16375 13.3721 3.16667 19.5417 3.16667C25.7113 3.16667 30.7083 8.16375 30.7083 14.3333ZM30.7083 33.0933V47.8333H0V42.25C0 36.0804 8.73792 31.0833 19.5417 31.0833C23.7292 31.0833 27.5538 31.8371 30.7083 33.0933ZM67 47.8333H36.2917V0.375H67V47.8333ZM44.6667 24.1042C44.6667 22.2532 45.402 20.478 46.7108 19.1691C48.0197 17.8603 49.7948 17.125 51.6458 17.125C53.4968 17.125 55.272 17.8603 56.5809 19.1691C57.8897 20.478 58.625 22.2532 58.625 24.1042C58.625 25.9552 57.8897 27.7303 56.5809 29.0392C55.272 30.348 53.4968 31.0833 51.6458 31.0833C49.7948 31.0833 48.0197 30.348 46.7108 29.0392C45.402 27.7303 44.6667 25.9552 44.6667 24.1042ZM61.4167 11.5417C59.9359 11.5417 58.5157 10.9534 57.4687 9.90635C56.4216 8.85927 55.8333 7.43913 55.8333 5.95833H47.4583C47.4583 9.05708 44.9738 11.5417 41.875 11.5417V36.6667C43.3558 36.6667 44.7759 37.2549 45.823 38.302C46.8701 39.3491 47.4583 40.7692 47.4583 42.25H55.8333C55.8333 39.1792 58.3458 36.6667 61.4167 36.6667V11.5417Z" fill="white"/>
</svg>
