<svg width="54" height="54" viewBox="0 0 54 54" fill="none" xmlns="http://www.w3.org/2000/svg">
<path d="M0.333008 48.3335H53.6663V53.6668H0.333008V48.3335ZM5.66634 27.0002H10.9997V45.6668H5.66634V27.0002ZM18.9997 27.0002H24.333V45.6668H18.9997V27.0002ZM29.6663 27.0002H34.9997V45.6668H29.6663V27.0002ZM42.9997 27.0002H48.333V45.6668H42.9997V27.0002ZM0.333008 13.6668L26.9997 0.333496L53.6663 13.6668V24.3335H0.333008V13.6668ZM26.9997 16.3335C27.7069 16.3335 28.3852 16.0525 28.8853 15.5524C29.3854 15.0524 29.6663 14.3741 29.6663 13.6668C29.6663 12.9596 29.3854 12.2813 28.8853 11.7812C28.3852 11.2811 27.7069 11.0002 26.9997 11.0002C26.2924 11.0002 25.6142 11.2811 25.1141 11.7812C24.614 12.2813 24.333 12.9596 24.333 13.6668C24.333 14.3741 24.614 15.0524 25.1141 15.5524C25.6142 16.0525 26.2924 16.3335 26.9997 16.3335Z" fill="white"/>
</svg>
