<svg width="53" height="49" viewBox="0 0 53 49" fill="none" xmlns="http://www.w3.org/2000/svg">
<path d="M50.8147 17.7224H47.5275V9.25014C47.5275 8.80074 47.3489 8.36975 47.0312 8.05198C46.7134 7.73421 46.2824 7.55569 45.833 7.55569H5.16634C4.71695 7.55569 4.28596 7.37717 3.96819 7.0594C3.65042 6.74163 3.4719 6.31064 3.4719 5.86125C3.4719 5.41185 3.65042 4.98086 3.96819 4.66309C4.28596 4.34532 4.71695 4.1668 5.16634 4.1668H45.1552C45.6046 4.1668 46.0356 3.98828 46.3534 3.67051C46.6712 3.35274 46.8497 2.92175 46.8497 2.47236C46.8497 2.02296 46.6712 1.59198 46.3534 1.27421C46.0356 0.956436 45.6046 0.777914 45.1552 0.777914H5.16634C4.5121 0.764426 3.86162 0.879966 3.25205 1.11793C2.64247 1.3559 2.08575 1.71163 1.6137 2.16481C1.14164 2.61799 0.763487 3.15973 0.500847 3.75908C0.238207 4.35844 0.0962234 5.00367 0.0830078 5.65791V41.2412C0.0852257 42.1617 0.268997 43.0726 0.623796 43.9219C0.978596 44.7712 1.49745 45.5422 2.15065 46.1907C2.80385 46.8392 3.57857 47.3524 4.43042 47.701C5.28227 48.0497 6.19453 48.2268 7.11495 48.2224H45.833C46.2824 48.2224 46.7134 48.0438 47.0312 47.7261C47.3489 47.4083 47.5275 46.9773 47.5275 46.5279V38.0557H50.8147C51.0285 38.0719 51.2435 38.0442 51.4463 37.9744C51.6491 37.9047 51.8355 37.7942 51.9942 37.6498C52.1528 37.5055 52.2803 37.3303 52.3688 37.1349C52.4574 36.9396 52.5051 36.7282 52.5091 36.5137V19.5693C52.5147 19.1036 52.3426 18.6534 52.0277 18.3102C51.7129 17.967 51.2791 17.7568 50.8147 17.7224ZM49.2219 34.6668H34.6836C32.9471 34.605 31.3061 33.8564 30.1211 32.5856C28.936 31.3148 28.3038 29.6256 28.3633 27.889C28.3038 26.1524 28.936 24.4632 30.1211 23.1924C31.3061 21.9216 32.9471 21.1731 34.6836 21.1112H49.2219V34.6668Z" fill="white"/>
<path d="M35.734 30.2948C37.1378 30.2948 38.2757 29.1568 38.2757 27.7531C38.2757 26.3494 37.1378 25.2114 35.734 25.2114C34.3303 25.2114 33.1924 26.3494 33.1924 27.7531C33.1924 29.1568 34.3303 30.2948 35.734 30.2948Z" fill="white"/>
</svg>
